<?xml version="1.0" encoding="UTF-8"?>
<svg id="Layer_2" data-name="Layer 2" xmlns="http://www.w3.org/2000/svg" viewBox="0 0 147 144">
  <defs>
    <style>
      .cls-1 {
        fill: #6a8363;
      }
    </style>
  </defs>
  <ellipse class="cls-1" cx="58.5" cy="46.3" rx="11.2" ry="16.5" transform="translate(-7.2 10.9) rotate(-10)"/>
  <ellipse class="cls-1" cx="39.3" cy="69.7" rx="10.1" ry="14.9" transform="translate(-16.7 12.5) rotate(-15)"/>
  <path class="cls-1" d="M96.8,84.8c-7-6-6.4-20.9-23.3-20.9s-16.3,14.9-23.3,20.9c-7.6,6.5-10.6,7.6-10.6,15.6s7.8,13.6,16,13.6c5.8,0,11.7-2.3,17.9-2.3s12.1,2.3,17.9,2.3c8.2,0,16-2.9,16-13.6s-3-9.2-10.6-15.6Z"/>
  <ellipse class="cls-1" cx="88.5" cy="46.3" rx="16.5" ry="11.2" transform="translate(27.5 125.4) rotate(-80)"/>
  <ellipse class="cls-1" cx="107.7" cy="69.7" rx="14.9" ry="10.1" transform="translate(12.6 155.7) rotate(-75)"/>
</svg>